<mxfile host="app.diagrams.net" agent="Mozilla/5.0 (Windows NT 10.0; Win64; x64) AppleWebKit/537.36 (KHTML, like Gecko) Chrome/135.0.0.0 Safari/537.36" version="26.2.14">
  <diagram name="Page-1" id="13e1069c-82ec-6db2-03f1-153e76fe0fe0">
    <mxGraphModel dx="1042" dy="535" grid="0" gridSize="10" guides="1" tooltips="1" connect="1" arrows="1" fold="1" page="1" pageScale="1" pageWidth="1100" pageHeight="850" background="none" math="0" shadow="0">
      <root>
        <mxCell id="0" />
        <mxCell id="1" parent="0" />
        <mxCell id="7baba1c4bc27f4b0-2" value="r: Receiver" style="shape=umlLifeline;perimeter=lifelinePerimeter;whiteSpace=wrap;html=1;container=1;collapsible=0;recursiveResize=0;outlineConnect=0;rounded=1;shadow=0;comic=0;labelBackgroundColor=none;strokeWidth=1;fontFamily=Verdana;fontSize=12;align=center;" parent="1" vertex="1">
          <mxGeometry x="275" y="89" width="100" height="580" as="geometry" />
        </mxCell>
        <mxCell id="7baba1c4bc27f4b0-10" value="" style="html=1;points=[];perimeter=orthogonalPerimeter;rounded=0;shadow=0;comic=0;labelBackgroundColor=none;strokeWidth=1;fontFamily=Verdana;fontSize=12;align=center;" parent="7baba1c4bc27f4b0-2" vertex="1">
          <mxGeometry x="45" y="132" width="10" height="151" as="geometry" />
        </mxCell>
        <mxCell id="7baba1c4bc27f4b0-11" value="dispatch" style="html=1;verticalAlign=bottom;endArrow=block;labelBackgroundColor=none;fontFamily=Verdana;fontSize=12;edgeStyle=elbowEdgeStyle;elbow=vertical;" parent="7baba1c4bc27f4b0-2" target="7baba1c4bc27f4b0-2" edge="1">
          <mxGeometry x="-0.0624" y="4" relative="1" as="geometry">
            <mxPoint x="-66" y="140" as="sourcePoint" />
            <mxPoint x="17" y="140" as="targetPoint" />
            <mxPoint as="offset" />
          </mxGeometry>
        </mxCell>
        <mxCell id="7baba1c4bc27f4b0-8" value="reg: Registration" style="shape=umlLifeline;perimeter=lifelinePerimeter;whiteSpace=wrap;html=1;container=1;collapsible=0;recursiveResize=0;outlineConnect=0;rounded=1;shadow=0;comic=0;labelBackgroundColor=none;strokeWidth=1;fontFamily=Verdana;fontSize=12;align=center;" parent="1" vertex="1">
          <mxGeometry x="159" y="91" width="100" height="584" as="geometry" />
        </mxCell>
        <mxCell id="7baba1c4bc27f4b0-9" value="" style="html=1;points=[];perimeter=orthogonalPerimeter;rounded=0;shadow=0;comic=0;labelBackgroundColor=none;strokeWidth=1;fontFamily=Verdana;fontSize=12;align=center;" parent="7baba1c4bc27f4b0-8" vertex="1">
          <mxGeometry x="45" y="100" width="10" height="256" as="geometry" />
        </mxCell>
        <mxCell id="xdAoZk5plBdQywnalAe--3" style="edgeStyle=orthogonalEdgeStyle;rounded=0;orthogonalLoop=1;jettySize=auto;html=1;dashed=1;endArrow=none;startFill=0;" parent="1" edge="1">
          <mxGeometry relative="1" as="geometry">
            <mxPoint x="94" y="689.9231144831731" as="targetPoint" />
            <mxPoint x="94" y="135" as="sourcePoint" />
            <Array as="points" />
          </mxGeometry>
        </mxCell>
        <mxCell id="xdAoZk5plBdQywnalAe--1" value="Maple: Student" style="shape=umlActor;verticalLabelPosition=bottom;verticalAlign=top;html=1;outlineConnect=0;" parent="1" vertex="1">
          <mxGeometry x="80" y="46" width="30" height="60" as="geometry" />
        </mxCell>
        <mxCell id="xdAoZk5plBdQywnalAe--4" value="" style="rounded=0;whiteSpace=wrap;html=1;" parent="1" vertex="1">
          <mxGeometry x="88" y="173" width="14" height="312" as="geometry" />
        </mxCell>
        <mxCell id="xdAoZk5plBdQywnalAe--5" value="" style="endArrow=classic;html=1;rounded=0;" parent="1" target="7baba1c4bc27f4b0-8" edge="1">
          <mxGeometry width="50" height="50" relative="1" as="geometry">
            <mxPoint x="102" y="198" as="sourcePoint" />
            <mxPoint x="210" y="198" as="targetPoint" />
          </mxGeometry>
        </mxCell>
        <mxCell id="xdAoZk5plBdQywnalAe--6" value="" style="endArrow=open;html=1;rounded=0;dashed=1;endFill=0;" parent="1" source="7baba1c4bc27f4b0-2" target="7baba1c4bc27f4b0-8" edge="1">
          <mxGeometry width="50" height="50" relative="1" as="geometry">
            <mxPoint x="241" y="461" as="sourcePoint" />
            <mxPoint x="218" y="259" as="targetPoint" />
            <Array as="points">
              <mxPoint x="270" y="259" />
            </Array>
          </mxGeometry>
        </mxCell>
        <mxCell id="xdAoZk5plBdQywnalAe--7" value="return" style="edgeLabel;html=1;align=center;verticalAlign=middle;resizable=0;points=[];" parent="xdAoZk5plBdQywnalAe--6" vertex="1" connectable="0">
          <mxGeometry x="0.2941" relative="1" as="geometry">
            <mxPoint x="12" y="-9" as="offset" />
          </mxGeometry>
        </mxCell>
        <mxCell id="xdAoZk5plBdQywnalAe--9" value="obj: Classname" style="rounded=1;whiteSpace=wrap;html=1;" parent="1" vertex="1">
          <mxGeometry x="395" y="274" width="91" height="55" as="geometry" />
        </mxCell>
        <mxCell id="xdAoZk5plBdQywnalAe--10" value="" style="endArrow=classic;html=1;rounded=0;entryX=0;entryY=0.5;entryDx=0;entryDy=0;exitX=0.7;exitY=0.531;exitDx=0;exitDy=0;exitPerimeter=0;dashed=1;" parent="1" source="7baba1c4bc27f4b0-10" target="xdAoZk5plBdQywnalAe--9" edge="1">
          <mxGeometry width="50" height="50" relative="1" as="geometry">
            <mxPoint x="397" y="289.7180000000001" as="sourcePoint" />
            <mxPoint x="347" y="339.7180000000001" as="targetPoint" />
          </mxGeometry>
        </mxCell>
        <mxCell id="kHfuppzTFpBB-edNmjUr-1" value="&amp;lt;&amp;lt;create&amp;gt;&amp;gt;" style="edgeLabel;html=1;align=center;verticalAlign=middle;resizable=0;points=[];" parent="xdAoZk5plBdQywnalAe--10" vertex="1" connectable="0">
          <mxGeometry x="-0.0182" y="4" relative="1" as="geometry">
            <mxPoint x="-1" y="-6" as="offset" />
          </mxGeometry>
        </mxCell>
        <mxCell id="xdAoZk5plBdQywnalAe--11" value="" style="endArrow=none;dashed=1;html=1;rounded=0;entryX=0.5;entryY=1;entryDx=0;entryDy=0;" parent="1" target="xdAoZk5plBdQywnalAe--9" edge="1">
          <mxGeometry width="50" height="50" relative="1" as="geometry">
            <mxPoint x="441" y="678" as="sourcePoint" />
            <mxPoint x="443" y="528" as="targetPoint" />
          </mxGeometry>
        </mxCell>
        <mxCell id="xdAoZk5plBdQywnalAe--12" value="" style="rounded=0;whiteSpace=wrap;html=1;" parent="1" vertex="1">
          <mxGeometry x="434" y="349" width="13" height="205" as="geometry" />
        </mxCell>
      </root>
    </mxGraphModel>
  </diagram>
</mxfile>
